The.Ghoul.1933.XviD-NvadR 
http://www.imdb.com/title/tt0024055/

THE GHOUL was made at the height of Karloff's fame following the actor's triumph in Universal's THE MUMMY and THE OLD DARK HOUSE. The cast is outstanding with a very young Ralph Richardson as a cleric who proves to be much more at the film's end, and of course the eccentric Ernest Thesiger as Karloff's very nervous Scottish manservant. Cedric Hardwicke appears as a shady lawyer right out of Charles Dickens and overacts accordingly.

Having seen mouth-watering stills from this film for the last 40 years, this pristine transfer is a sight to behold. Although in cleaning the print up we do lose some definition in the process but all in all this is a gorgeous transfer from the Golden Age of Horror. After recovering from that, THE GHOUL does fall short in the script department as it is an obvious attempt by Gaumont to capitalize on the success of Karloff's Universal films by making a film that is part mummy with a dash of J.P. Priestley even to the extent of casting Thesiger in yet another old dark house this time filled with Egyptian artifacts.

----------------- TRAILER ----------------
------------------------------------------

Karloff's character that, of Professor Moriant, is a grotesque figure from the first shot and really doesn't change that much when he returns from the grave as the title would suggest. If James Whale or Karl Freund had been in the director's chair this might be the masterpiece we all hoped for all these years but time has given this film a place in film history regardless of its shortcomings.

The plot of THE GHOUL is simple Karloff is unhinged by his belief in the afterlife promised by the God Anubis and secures a sacred jewel known as the eternal light to grant him immortality. The gem is buried with him only to be stolen of course and Karloff's resurrection from the tomb and return to the old dark house to reclaim it is the main set piece and for the most part delivers enough atmosphere to make it a must for fans of Karloff and classic Universal horror.

Besides thefascinating cast of British character actors, the role made for Fay Wray is played by Dorothy Hyson with great charm and she might have gone on the bigger things if she hadn't chosen a family over a career. The sets are wonderful and very Germanic thanks to cameraman Günther Krampl and his art director who give the film what director Hunter could not!

One thing that really stands out for this writer is the sequence where Karloff mutilates his chest with a knife to appease Anubis, by carving a mystic symbol on it. Definitely pre-code material to say the least!

---------------- SCREENSHOTS --------------- 
http://www.postimg.com/38000/photo-37617.jpg
 
http://www.postimg.com/38000/photo-37618.jpg
 
http://www.postimg.com/38000/photo-37619.jpg
 
http://www.postimg.com/38000/photo-37620.jpg
--------------------------------------------

   General
      
      Format : AVI
      Format/Info : Audio Video Interleave
      File size : 701 MiB
      Duration : 1h 20mn
      Overall bit rate : 1 222 Kbps
      Writing library : VirtualDub-MPEG2 build 24586/release

   Video 

      Format : MPEG-4 Visual
      Format profile : Advanced
      Format settings, BVOP : 2
      Format settings, QPel : No
      Format settings, GMC : No warppoints
      Format settings, Matrix : (MPEG)
      Muxing mode : Packed bitstream
      Codec ID : XVID
      Codec ID/Hint : XviD
      Duration : 1h 20mn
      Bit rate : 1 116 Kbps
      Width : 640 pixels
      Height : 480 pixels
      Display aspect ratio : 4:3
      Frame rate : 23.976 fps
      Resolution : 24 bits
      Colorimetry : 4:2:0
      Scan type : Progressive
      Bits/(Pixel*Frame) : 0.152
      Stream size : 640 MiB (91%)
      Writing library : XviD 63

   Audio 

      Audio Language : English
      Format : MPEG Audio
      Format version : Version 1
      Format profile : Layer 3
      Codec ID : 55
      Codec ID/Hint : MP3
      Duration : 1h 20mn
      Bit rate mode : Constant
      Bit rate : 96.0 Kbps
      Channel(s) : 2 channels
      Sampling rate : 48.0 KHz
      Resolution : 16 bits
      Stream size : 55.1 MiB (8%)
      Alignment : Split accross interleaves
      Interleave, duration : 42 ms (1.00 video frame)
      Interleave, preload duration : 500 ms
      
      SUBTITLES INCLUDE - ENGLISH - FRENCH - SPANISH                      
      
-------------- TORRENT STATS --------------- 
http://torrent-stats.info/d376/122588500.png